<svg xmlns="http://www.w3.org/2000/svg" width="82.88" height="49.562" viewBox="0 0 82.88 49.562">
  <g id="aws-2" transform="translate(-1.668 -1.1)">
    <path id="Path_27" data-name="Path 27" d="M34.03,19.1a8.34,8.34,0,0,0,.3,2.453,14.754,14.754,0,0,0,.882,1.985,1.2,1.2,0,0,1,.193.634,1.091,1.091,0,0,1-.524.827l-1.737,1.158a1.322,1.322,0,0,1-.717.248,1.268,1.268,0,0,1-.827-.386,8.528,8.528,0,0,1-.992-1.3c-.276-.469-.551-.992-.855-1.626a10.183,10.183,0,0,1-8.1,3.8,7.553,7.553,0,0,1-5.513-1.985,7.081,7.081,0,0,1-2.04-5.292,7.1,7.1,0,0,1,2.508-5.678,10.028,10.028,0,0,1,6.753-2.15,21.825,21.825,0,0,1,2.922.221c1.02.138,2.067.358,3.17.606V10.61c0-2.095-.441-3.556-1.3-4.41-.882-.855-2.371-1.268-4.493-1.268a12.542,12.542,0,0,0-2.977.358,21.964,21.964,0,0,0-2.977.937,7.909,7.909,0,0,1-.965.358,1.691,1.691,0,0,1-.441.083c-.386,0-.579-.276-.579-.855V4.463a1.744,1.744,0,0,1,.193-.965,2.064,2.064,0,0,1,.772-.579,15.87,15.87,0,0,1,3.473-1.24,16.712,16.712,0,0,1,4.3-.524c3.28,0,5.678.744,7.222,2.233,1.516,1.489,2.288,3.749,2.288,6.781V19.1ZM22.838,23.29a8.933,8.933,0,0,0,2.839-.5A6.143,6.143,0,0,0,28.3,21.03a4.375,4.375,0,0,0,.937-1.764,9.9,9.9,0,0,0,.276-2.4V15.709a23.02,23.02,0,0,0-2.536-.469,20.771,20.771,0,0,0-2.591-.165,6.355,6.355,0,0,0-4.107,1.1,3.842,3.842,0,0,0-1.351,3.17,3.557,3.557,0,0,0,3.914,3.942Zm22.135,2.977a1.539,1.539,0,0,1-1.047-.276,2.247,2.247,0,0,1-.579-1.075L36.869,3.608a4.829,4.829,0,0,1-.248-1.1.6.6,0,0,1,.662-.689h2.7a1.528,1.528,0,0,1,1.075.276,2.255,2.255,0,0,1,.551,1.075l4.631,18.248,4.3-18.248a1.934,1.934,0,0,1,.524-1.075,1.9,1.9,0,0,1,1.1-.276h2.205a1.659,1.659,0,0,1,1.1.276A1.857,1.857,0,0,1,56,3.167l4.355,18.469L65.123,3.167a2.364,2.364,0,0,1,.551-1.075,1.8,1.8,0,0,1,1.075-.276h2.564A.613.613,0,0,1,70,2.506a2.749,2.749,0,0,1-.055.441,3.921,3.921,0,0,1-.193.689L63.111,24.944a2.114,2.114,0,0,1-.579,1.075,1.763,1.763,0,0,1-1.047.276H59.114a1.659,1.659,0,0,1-1.1-.276,1.954,1.954,0,0,1-.524-1.1L53.215,7.137,48.97,24.889a2.152,2.152,0,0,1-.524,1.1,1.709,1.709,0,0,1-1.1.276Zm35.421.744a18.241,18.241,0,0,1-4.245-.5,12.54,12.54,0,0,1-3.17-1.1,1.986,1.986,0,0,1-.855-.772,1.946,1.946,0,0,1-.165-.772V22.463c0-.579.221-.855.634-.855a1.561,1.561,0,0,1,.5.083c.165.055.413.165.689.276a14.993,14.993,0,0,0,3.032.965,16.554,16.554,0,0,0,3.28.331,7.437,7.437,0,0,0,4.025-.91,2.968,2.968,0,0,0,1.433-2.619A2.684,2.684,0,0,0,84.8,17.8a6.916,6.916,0,0,0-2.784-1.433l-4-1.24a8.408,8.408,0,0,1-4.41-2.812,6.567,6.567,0,0,1-1.378-4,6.135,6.135,0,0,1,.744-3.06A7.088,7.088,0,0,1,74.964,3,8.749,8.749,0,0,1,77.83,1.569,12.014,12.014,0,0,1,81.3,1.1a13.838,13.838,0,0,1,1.847.11c.634.083,1.213.193,1.792.3.551.138,1.075.276,1.571.441a6.016,6.016,0,0,1,1.158.5,2.384,2.384,0,0,1,.827.689,1.485,1.485,0,0,1,.248.91v1.3c0,.579-.221.882-.634.882A2.867,2.867,0,0,1,87.065,5.9a12.611,12.611,0,0,0-5.292-1.075,7.115,7.115,0,0,0-3.666.772,2.662,2.662,0,0,0-1.3,2.453A2.6,2.6,0,0,0,77.637,10,8.234,8.234,0,0,0,80.67,11.52l3.914,1.24a8.384,8.384,0,0,1,4.273,2.646,6.238,6.238,0,0,1,1.268,3.859,7.086,7.086,0,0,1-.717,3.2A7.413,7.413,0,0,1,87.4,24.889a8.885,8.885,0,0,1-3.06,1.544,13.108,13.108,0,0,1-3.942.579Z" transform="translate(-9.005)" fill="#4d4d4d"/>
    <g id="Group_2" data-name="Group 2" transform="translate(1.668 31.998)">
      <path id="Path_28" data-name="Path 28" d="M76.6,125.912c-9.069,6.7-22.245,10.254-33.574,10.254A60.74,60.74,0,0,1,2.035,120.537c-.855-.772-.083-1.819.937-1.213a82.664,82.664,0,0,0,41.017,10.888,81.851,81.851,0,0,0,31.286-6.4C76.792,123.128,78.087,124.81,76.6,125.912Z" transform="translate(-1.668 -117.503)" fill="#4d4d4d" fill-rule="evenodd"/>
      <path id="Path_29" data-name="Path 29" d="M257.347,117.3c-1.158-1.489-7.663-.717-10.613-.358-.882.11-1.02-.662-.221-1.24,5.182-3.639,13.7-2.591,14.692-1.378.992,1.24-.276,9.758-5.127,13.838-.744.634-1.461.3-1.13-.524C256.052,124.91,258.5,118.763,257.347,117.3Z" transform="translate(-178.64 -113.192)" fill="#4d4d4d" fill-rule="evenodd"/>
    </g>
  </g>
</svg>
