<svg xmlns="http://www.w3.org/2000/svg" width="211.574" height="44.178" viewBox="0 0 211.574 44.178">
  <g id="bitcoin-logo" transform="translate(0.002 -0.003)">
    <path id="Path_2" data-name="Path 2" d="M43.51,27.435A22.081,22.081,0,1,1,27.424.664,22.083,22.083,0,0,1,43.51,27.435Z" transform="translate(0 0)" fill="#f7931a"/>
    <path id="Path_3" data-name="Path 3" d="M36.646,22.4c.44-2.939-1.8-4.519-4.858-5.573l.993-3.982-2.424-.6-.966,3.877q-.968-.238-1.941-.457l.973-3.9L26,11.154l-.993,3.98c-.527-.12-1.045-.239-1.548-.364l0-.012-3.342-.835-.645,2.589s1.8.412,1.76.438a1.29,1.29,0,0,1,1.129,1.41l-1.131,4.536a2.129,2.129,0,0,1,.252.081l-.256-.064-1.585,6.354a.883.883,0,0,1-1.111.576c.025.035-1.761-.44-1.761-.44l-1.2,2.775,3.154.787c.587.146,1.162.3,1.728.445l-1,4.027,2.421.6.993-3.985c.661.18,1.3.345,1.931.5l-.99,3.966,2.423.6,1-4.019c4.133.782,7.24.467,8.548-3.271,1.054-3.01-.052-4.746-2.227-5.878A3.867,3.867,0,0,0,36.646,22.4Zm-5.538,7.764c-.749,3.01-5.816,1.383-7.459.975L24.98,25.8C26.623,26.214,31.891,27.026,31.108,30.164Zm.75-7.807c-.683,2.737-4.9,1.346-6.269,1.005L26.8,18.523c1.368.341,5.774.977,5.063,3.833Z" transform="translate(-4.823 -3.454)" fill="#fff"/>
    <path id="Path_4" data-name="Path 4" d="M85.02,13.371a10.539,10.539,0,0,1,4.639.951,9.337,9.337,0,0,1,3.251,2.572,10.833,10.833,0,0,1,1.9,3.8,17.367,17.367,0,0,1,.612,4.7,19.124,19.124,0,0,1-5.31,13.281,18.275,18.275,0,0,1-5.815,4.02,17.749,17.749,0,0,1-7.263,1.483c-.337,0-.929-.01-1.766-.027A25.966,25.966,0,0,1,72.39,43.9a33.741,33.741,0,0,1-3.44-.675A17.234,17.234,0,0,1,65.511,42L75.183,1.354,83.846.012,80.383,14.434a13.468,13.468,0,0,1,2.234-.781,9.958,9.958,0,0,1,2.4-.282ZM77.753,37.3a7.6,7.6,0,0,0,3.689-.951,9.7,9.7,0,0,0,3-2.544A12.827,12.827,0,0,0,86.42,30.2a12.283,12.283,0,0,0,.728-4.2,8.259,8.259,0,0,0-.895-4.192,3.515,3.515,0,0,0-3.3-1.51,10.343,10.343,0,0,0-2.038.279,5.089,5.089,0,0,0-2.268,1.177L74.96,37.074c.222.039.419.077.587.112a4.351,4.351,0,0,0,.527.084,6.07,6.07,0,0,0,.674.032h1Zm26.65,6.1H96.128l6.988-29.4h8.331Zm4.026-32.986A5.134,5.134,0,0,1,105.3,9.379a3.653,3.653,0,0,1-1.4-3.159,5.247,5.247,0,0,1,.474-2.206,5.9,5.9,0,0,1,1.26-1.79,6.19,6.19,0,0,1,1.815-1.2,5.544,5.544,0,0,1,2.212-.446,5.136,5.136,0,0,1,3.128,1.033,3.688,3.688,0,0,1,1.4,3.159,5.222,5.222,0,0,1-.476,2.21,5.819,5.819,0,0,1-1.256,1.79,6.078,6.078,0,0,1-1.815,1.2,5.434,5.434,0,0,1-2.206.445ZM118.7,6.668l8.666-1.343-2.128,8.667h9.281l-1.676,6.819h-9.226L121.159,31.1a11.617,11.617,0,0,0-.391,2.4,4.38,4.38,0,0,0,.277,1.93,2.421,2.421,0,0,0,1.2,1.254,5.5,5.5,0,0,0,2.488.451,13.22,13.22,0,0,0,2.6-.253,18.262,18.262,0,0,0,2.54-.7l.618,6.375a29.743,29.743,0,0,1-3.634,1.06,20.929,20.929,0,0,1-4.641.445,12.859,12.859,0,0,1-5.983-1.141,6.644,6.644,0,0,1-3.02-3.135,9.959,9.959,0,0,1-.782-4.553,29.4,29.4,0,0,1,.782-5.424L118.7,6.668Zm15.456,24.989a20.667,20.667,0,0,1,1.229-7.157,17.607,17.607,0,0,1,3.525-5.874,16.511,16.511,0,0,1,5.565-3.967,17.769,17.769,0,0,1,7.291-1.454,19.28,19.28,0,0,1,4.5.477,18.213,18.213,0,0,1,3.608,1.256l-2.853,6.489q-1.141-.458-2.32-.81a10.087,10.087,0,0,0-2.934-.365A8.2,8.2,0,0,0,145.2,23.1a11.421,11.421,0,0,0-2.435,7.662,7.876,7.876,0,0,0,1.234,4.612q1.228,1.763,4.527,1.761a14.518,14.518,0,0,0,3.131-.334,15.424,15.424,0,0,0,2.685-.838l.618,6.652a29.974,29.974,0,0,1-3.466,1.093,19.249,19.249,0,0,1-4.531.471,15.269,15.269,0,0,1-5.869-1,11.175,11.175,0,0,1-3.968-2.711,10.225,10.225,0,0,1-2.265-4,16.429,16.429,0,0,1-.7-4.806Zm36.757,12.52a13.534,13.534,0,0,1-5.146-.9,9.5,9.5,0,0,1-3.6-2.515,10.857,10.857,0,0,1-2.152-3.828,15.466,15.466,0,0,1-.723-4.887,21.571,21.571,0,0,1,1.087-6.713,19.055,19.055,0,0,1,3.217-6.035,17.206,17.206,0,0,1,5.2-4.394,14.3,14.3,0,0,1,7.04-1.7,13.6,13.6,0,0,1,5.12.9,9.567,9.567,0,0,1,3.634,2.515,10.894,10.894,0,0,1,2.147,3.831,15.476,15.476,0,0,1,.728,4.889,22.313,22.313,0,0,1-1.058,6.712,19.365,19.365,0,0,1-3.131,6.036,16.393,16.393,0,0,1-5.17,4.386,14.669,14.669,0,0,1-7.184,1.706Zm4.135-23.925a5.228,5.228,0,0,0-3.239,1.059A9.141,9.141,0,0,0,169.462,24a13.255,13.255,0,0,0-1.43,3.55,15.28,15.28,0,0,0-.473,3.661,8.927,8.927,0,0,0,.893,4.365,3.419,3.419,0,0,0,3.243,1.563,5.2,5.2,0,0,0,3.244-1.064,9.16,9.16,0,0,0,2.346-2.683,13.264,13.264,0,0,0,1.43-3.55,15.508,15.508,0,0,0,.472-3.661,8.842,8.842,0,0,0-.9-4.362,3.415,3.415,0,0,0-3.243-1.563ZM196.472,43.4h-8.281l6.988-29.4h8.334Zm4.02-32.986a5.122,5.122,0,0,1-3.128-1.033,3.662,3.662,0,0,1-1.4-3.159,5.26,5.26,0,0,1,.476-2.206,5.826,5.826,0,0,1,1.259-1.79,6.191,6.191,0,0,1,1.817-1.2,5.5,5.5,0,0,1,2.2-.446,5.139,5.139,0,0,1,3.133,1.033,3.685,3.685,0,0,1,1.4,3.159,5.3,5.3,0,0,1-.48,2.21,5.812,5.812,0,0,1-1.254,1.79,6.148,6.148,0,0,1-1.815,1.2,5.457,5.457,0,0,1-2.213.445Zm8.985,4.92c.628-.184,1.329-.4,2.092-.645q1.272-.394,2.577-.665a31.034,31.034,0,0,1,3.184-.507,35.787,35.787,0,0,1,3.993-.2q6.546,0,9.033,3.8t.87,10.4L227.419,43.4H219.09l3.69-15.543c.224-.97.4-1.909.532-2.825a6.7,6.7,0,0,0-.029-2.4,2.877,2.877,0,0,0-1.031-1.679,4,4,0,0,0-2.489-.642,16.815,16.815,0,0,0-3.3.34l-5.424,22.75H202.71l6.767-28.062Z" transform="translate(-20.291 -0.003)" fill="#4d4d4d"/>
  </g>
</svg>
