<svg xmlns="http://www.w3.org/2000/svg" width="154.995" height="69.778" viewBox="0 0 154.995 69.778">
  <g id="chick-fil-a-logo" transform="translate(-1 -1)">
    <path id="Path_15" data-name="Path 15" d="M552.76,140.778a1.628,1.628,0,1,1,1.535-1.627,1.584,1.584,0,0,1-1.535,1.627m0-3.646a2.025,2.025,0,1,0,1.912,2.02,1.965,1.965,0,0,0-1.912-2.02" transform="translate(-402.913 -99.753)" fill="#4d4d4d"/>
    <path id="Path_16" data-name="Path 16" d="M149.527,39.72h.121l.12.006a.539.539,0,0,1,.191.035.26.26,0,0,1,.156.152.759.759,0,0,1,.031.257,1.279,1.279,0,0,0,.038.29h.532l-.02-.058a.236.236,0,0,1-.013-.062c0-.019-.006-.037-.006-.06v-.185a.537.537,0,0,0-.187-.468.7.7,0,0,0-.3-.126.705.705,0,0,0,.372-.141.448.448,0,0,0,.151-.382.523.523,0,0,0-.287-.5.992.992,0,0,0-.422-.11c-.027,0-.173,0-.436,0h-.6v2.1h.56Zm.522-.455a.523.523,0,0,1-.307.079h-.215v-.612h.134a.935.935,0,0,1,.325.042.244.244,0,0,1,.171.241.277.277,0,0,1-.108.25M74.674,48.4c1.266,0,1.567,1.267,1.507,1.976-.251,2.928-4.212,5.309-5.216,5.428.537-6.054,2.311-7.334,3.708-7.4M35.2,49.05a45.927,45.927,0,0,1-3.048,4.055c.066-.613.132-1.2.2-1.757.994-7.979,2.463-10.659,4.376-10.321a1.331,1.331,0,0,1,.893,1.354c.14,1.736-.594,3.873-2.425,6.668m108.265,7.439a39.635,39.635,0,0,1-2.624-4.62c-1.283,1.821-2.709,3.653-4.176,5.4a37.428,37.428,0,0,0,6.8-.775M141.483,44.6a10.643,10.643,0,0,0,1.369-3.825c.072-.584-.026-1.594-.853-1.594-1.429,0-1.429,2.307-.516,5.419m-25.158,9.633c3.479-4.059,5.259-10.147,4.848-12.643-.09-.523-.286-.925-.8-.861-1.625.208-5.414,7.565-4.047,13.5M96.26,59.526a6.8,6.8,0,0,1-3.176-2.057c-.05.041-.1.077-.146.113a1.028,1.028,0,0,1-.037.192c-.036,5.1,1.7,9.819,3.627,9.592,2.029-.355,1.072-4.73-.268-7.841M93.211,53.3c3.953-3.936,7.032-9.543,7.012-12.545,0-.578-.129-1.087-.673-1.087-1.237,0-5.271,4.139-6.339,13.631M81.675,57.2c-1.589.145-1.939,3.772-5.11,3.946-2.164.12-3.156-2.588-3.156-2.588s6.124-2.832,6.08-8.948c-.1-1.753-.97-4.56-4.21-4.56a5.8,5.8,0,0,0-3.868,1.9,47.523,47.523,0,0,0,.746-6.666c.091-1.879-1.221-2.06-1.73-2.032-.378.019-1.478.309-1.627,2.009-.5,5.669-.577,6.51-1.03,10.116-.831,6.623-5.433,8.926-8.43,8.752-1.275-.075-3.27-.768-3.27-4.27,0-3.758,2.352-6.54,3.6-6.369.879.119,1.333,1.048.553,2.382-.631,1.105-1.292,2.644.336,3.276,1.933.672,3.363-2.175,3.415-4.812a4.429,4.429,0,0,0-4.382-4.61c-3.276-.164-7.19,4.367-7.19,10.457a10.181,10.181,0,0,0,.1,1.435c-.237,1.377-1.395,2.788-2.549,2.788-1.253,0-2.31-1.884-2.178-4.288A17.387,17.387,0,0,1,48.975,50c.648-2.05-.12-2.464-1.032-2.642-.717-.137-1.855.053-2.455,2.091-.544,1.85-1.253,4.377-1.87,6.236A13.388,13.388,0,0,1,42.1,59.065a2.606,2.606,0,0,1-1.753,1.069c-2.025.019-.309-4.145-.309-7A1.987,1.987,0,0,0,37.4,51.263c2.232-3.379,3.362-6.269,3.291-9.223-.135-3.243-2.408-4.185-4.125-4.151-4.6.1-7,5.428-7.876,17.889-4.143,4.133-9.19,6.627-14,6.217-6.808-.582-10.316-7.629-9.862-16.079.639-11.857,9.5-26.161,17.944-25.283,2.96.31,5,3.071,4.687,9.053-.368,6.936-5.1,17.051-10.095,16.754-2.306-.137-3.027-2.632-2.851-4.839.381-4.778,2.676-6.089,2.829-8.027a1.35,1.35,0,0,0-1.825-1.366c-1.39.469-4.16,4.111-4.5,9.29-.413,6.328,3.534,8.3,5.873,8.441,6.921.411,13.676-9.816,14.245-20.558.365-6.953-2.5-11.442-7.923-12.059-10.546-1.2-21.624,13.417-22.19,28.722C.679,55.2,4.861,64.776,14.613,65.5c4.659.316,9.534-1.624,13.8-5.1-.008.78,0,1.473,0,1.994.039,1.282.474,2.388,1.808,2.346,1.273-.047,1.608-1.02,1.579-2.186-.016-.677-.011-1.335,0-1.974.279-5.573,2.91-6.379,3.976-6.18,1.469.327.3,1.737.445,5.737a3.48,3.48,0,0,0,3.341,3.63c2.41,0,4.5-1.839,5.728-4.579l.043-.033c1.064,2.808,2.87,3.813,4.311,3.813,1.691,0,3.291-1.305,4.291-2.754a6.767,6.767,0,0,0,4.884,2.675A10,10,0,0,0,66.4,59.6c-.226,1.55-.5,3.634-.5,3.973,0,.921.408,1.572,1.269,1.672,1.417.164,2.452-.836,2.894-5.749,0,0,2,4.85,6.448,4.85s6.383-4.509,6.383-5.885c0-.4-.142-1.364-1.218-1.263M38.845,31.25c0-1.44-3.728-4.166-6.36-4.422.031.777.025,1.577-.018,2.408a35.559,35.559,0,0,1-.821,5.889c4.838-3.545,7.2-2.571,7.2-3.875M153.3,64.361c-2.624-.142-5.343-2.175-7.763-5.075a49.828,49.828,0,0,1-11.709,1.209,55.917,55.917,0,0,1-6.692,6.353s-2.335,1.864-3.469.281c-.663-1.063-.325-2.207,1.5-3.424a31.362,31.362,0,0,0,4.113-3.511c-2.614-.754-1.97-3.624.584-3.293.186.026,1.032.152,2.338.252a82.981,82.981,0,0,0,7.094-8.94,21.627,21.627,0,0,1-1.482-6.953c0-2.523,1.363-5.379,4.138-5.379,2.686,0,4.06,2.364,4.06,4.809,0,2.079-1.2,4.892-3.032,7.925a38.885,38.885,0,0,0,3.933,6.925,23.032,23.032,0,0,0,4.789-2.271c2.052-1.3,3.818,1.2,1.663,2.8a21.135,21.135,0,0,1-4.232,2.123,8.424,8.424,0,0,0,4.849,2.844c2.743.247,2.856,3.625-.679,3.323M126.53,56.85c-.321,1.333-1.976,5.18-6.2,5.281h-.092a6.6,6.6,0,0,1-5.285-2.807c-1.984,1.325-3.9,1.964-5.27,1.745a5.02,5.02,0,0,1-4.123-4.587,8.885,8.885,0,0,1-6.156,3.36,12.574,12.574,0,0,1,1.172,5.321c0,2.776-1.522,5.615-4.276,5.615-3.849,0-6.156-5.725-6.456-11.3a1.592,1.592,0,0,1-2.249-.652c-.609-1.339.9-2.575,2.176-3.339C90,44.379,94.586,36.521,99.55,36.521c1.669,0,3.679,1.075,3.679,4.3,0,3.382-1.9,7.714-4.951,11.581a35.417,35.417,0,0,1-2.456,2.6c4.339,3.252,6.971-.252,8.055-2.4a17.447,17.447,0,0,0,.64-1.646c.615-1.854.439-1.421,1.018-3.259.827-2.619,2.168-2.5,2.775-2.4,2.161.38.866,2.916.338,5.145l-.024.054c-.812,3.8-.435,6.814,1.806,7.281A5.049,5.049,0,0,0,113.64,56.5c-2.954-8.1,1.557-17.689,6.226-18.613,1.559-.308,3.609.3,4.125,3.216.536,3.063-.54,7.331-2.778,11.394a20.833,20.833,0,0,1-3.689,4.571.093.093,0,0,1,.017.032,3.83,3.83,0,0,0,2.963,1.775A3.667,3.667,0,0,0,124,56.045a1.377,1.377,0,0,1,1.812-1,1.41,1.41,0,0,1,.722,1.809M109.14,39.982a2,2,0,1,0,1.878,1.992,1.937,1.937,0,0,0-1.878-1.992m21.189,12.51c2.4,0,3.331-.993,3.331-2.014,0-1.311-1.484-1.943-3.329-1.924-1.887.021-3.228.76-3.228,1.942,0,.963.826,2,3.226,2m-45.7.008c2.408,0,3.347-1,3.347-2.022,0-1.317-1.491-1.95-3.347-1.932-1.894.021-3.239.764-3.239,1.949,0,.968.831,2,3.239,2M48.9,41.972a2.1,2.1,0,1,0,1.978,2.1,2.039,2.039,0,0,0-1.978-2.1M7.5,12.8c-.9,1.121-.62,2.94,1.012,4.416s3.9,1.959,4.8.84.1-3.417-1.533-4.893S8.407,11.676,7.5,12.8m6.457-8.006c-1.754.852-2.377,3.388-1.086,6.371s3.922,5.1,5.675,4.25,1.966-4.35.676-7.334S15.711,3.94,13.957,4.789m13.356-3.7C24.984.547,22.6,2.556,21.79,6.5s.318,8.087,2.649,8.622,4.983-2.735,5.79-6.678-.584-6.823-2.915-7.356M44.144,7.5c-1.779-2.533-5.63-2.688-9.52.375s-6.109,8-4.33,10.535,6.881,1.714,10.774-1.351,4.854-7.019,3.076-9.559M25.382,27.139c-.044,2.059-2.414,4.571-3.546,2.636-.617-1.481.934-4.176,2.37-4.222,1.158,0,1.185,1.095,1.176,1.586" fill="#4d4d4d"/>
  </g>
</svg>
