<svg id="microsoft" xmlns="http://www.w3.org/2000/svg" width="198.261" height="42.327" viewBox="0 0 198.261 42.327">
  <path id="Path_7" data-name="Path 7" d="M430.064,47.033V43.546h-4.33V38.125l-.146.045-4.067,1.244-.08.024v4.107h-6.419V41.258a3.634,3.634,0,0,1,.708-2.424,2.5,2.5,0,0,1,1.984-.81,4.622,4.622,0,0,1,1.882.428l.16.071V34.851l-.075-.028a7.335,7.335,0,0,0-2.4-.321,7.049,7.049,0,0,0-3.411.82,5.831,5.831,0,0,0-2.341,2.314,6.9,6.9,0,0,0-.829,3.395v2.515H407.68v3.487h3.015V61.722h4.328V47.033h6.419v9.335c0,3.844,1.813,5.793,5.39,5.793a8.841,8.841,0,0,0,1.838-.2,5.077,5.077,0,0,0,1.339-.424l.057-.034V57.979l-.176.116a3.031,3.031,0,0,1-.87.38,3.307,3.307,0,0,1-.855.145,2.319,2.319,0,0,1-1.842-.671,3.614,3.614,0,0,1-.586-2.335V47.033ZM398.014,58.621a4.591,4.591,0,0,1-3.682-1.547,6.57,6.57,0,0,1-1.323-4.37,6.828,6.828,0,0,1,1.324-4.485,4.518,4.518,0,0,1,3.647-1.572,4.45,4.45,0,0,1,3.551,1.5,6.7,6.7,0,0,1,1.3,4.449,7.138,7.138,0,0,1-1.22,4.5,4.341,4.341,0,0,1-3.593,1.518m.192-15.513a9.493,9.493,0,0,0-7.075,2.61,9.788,9.788,0,0,0-2.556,7.126,9.269,9.269,0,0,0,2.5,6.8,9.052,9.052,0,0,0,6.7,2.513,9.233,9.233,0,0,0,6.935-2.646,9.761,9.761,0,0,0,2.556-7.055,9.523,9.523,0,0,0-2.4-6.853,8.831,8.831,0,0,0-6.655-2.5m-16.609,0a7.824,7.824,0,0,0-5.013,1.55,4.944,4.944,0,0,0-1.954,4.032,5.642,5.642,0,0,0,.421,2.254,4.528,4.528,0,0,0,1.293,1.689,11.255,11.255,0,0,0,2.631,1.472,19.6,19.6,0,0,1,2.188,1.019,3.042,3.042,0,0,1,.963.791,1.776,1.776,0,0,1,.268,1.03c0,1.221-.914,1.815-2.8,1.815a7.686,7.686,0,0,1-2.366-.433,8.889,8.889,0,0,1-2.423-1.229l-.18-.129v4.167l.066.031a10.721,10.721,0,0,0,2.295.709,12.307,12.307,0,0,0,2.45.283,8.308,8.308,0,0,0,5.294-1.558,5.041,5.041,0,0,0,1.971-4.128,4.748,4.748,0,0,0-1.06-3.123,9.089,9.089,0,0,0-3.6-2.294,9.288,9.288,0,0,1-2.567-1.334,1.868,1.868,0,0,1-.518-1.4,1.56,1.56,0,0,1,.657-1.295,2.952,2.952,0,0,1,1.842-.52,7.54,7.54,0,0,1,2.193.337,7.046,7.046,0,0,1,1.915.888l.177.121V43.9l-.068-.029a9.443,9.443,0,0,0-1.944-.542,11.869,11.869,0,0,0-2.132-.221m-18.25,15.513a4.591,4.591,0,0,1-3.682-1.547,6.568,6.568,0,0,1-1.323-4.37,6.827,6.827,0,0,1,1.324-4.485,4.516,4.516,0,0,1,3.646-1.572,4.45,4.45,0,0,1,3.551,1.5,6.694,6.694,0,0,1,1.3,4.449,7.138,7.138,0,0,1-1.22,4.5,4.34,4.34,0,0,1-3.593,1.518m.193-15.513a9.49,9.49,0,0,0-7.075,2.61,9.788,9.788,0,0,0-2.557,7.126,9.267,9.267,0,0,0,2.5,6.8,9.052,9.052,0,0,0,6.7,2.513,9.234,9.234,0,0,0,6.935-2.646,9.763,9.763,0,0,0,2.556-7.055,9.521,9.521,0,0,0-2.4-6.853,8.831,8.831,0,0,0-6.654-2.5m-16.2,3.585V43.546h-4.275V61.721h4.275v-9.3a6.48,6.48,0,0,1,1.066-3.861,3.269,3.269,0,0,1,2.765-1.46,5.021,5.021,0,0,1,1.286.189,3.252,3.252,0,0,1,1,.4l.18.13v-4.31l-.069-.03a4.426,4.426,0,0,0-1.674-.255,4.381,4.381,0,0,0-2.859,1.025,5.791,5.791,0,0,0-1.645,2.438Zm-11.932-3.585a10.553,10.553,0,0,0-5.2,1.25,8.421,8.421,0,0,0-3.429,3.526,11.23,11.23,0,0,0-1.178,5.223,9.636,9.636,0,0,0,1.145,4.682,8.044,8.044,0,0,0,3.2,3.235,9.523,9.523,0,0,0,4.674,1.136,10.234,10.234,0,0,0,5.157-1.207l.056-.032V57l-.18.131a8.037,8.037,0,0,1-2.092,1.089,6.321,6.321,0,0,1-2.049.4,5.265,5.265,0,0,1-4-1.56,6.068,6.068,0,0,1-1.476-4.322,6.294,6.294,0,0,1,1.539-4.436,5.236,5.236,0,0,1,4.01-1.655,6.867,6.867,0,0,1,4.07,1.416l.179.13V44.066l-.058-.033a7.055,7.055,0,0,0-1.978-.669,11.814,11.814,0,0,0-2.39-.256m-12.75.438h-4.275V61.721h4.275V43.546ZM320.562,35.8a2.576,2.576,0,0,0-1.822.714,2.357,2.357,0,0,0-.763,1.783,2.29,2.29,0,0,0,.755,1.748,2.6,2.6,0,0,0,1.83.7,2.637,2.637,0,0,0,1.838-.7,2.281,2.281,0,0,0,.765-1.749,2.4,2.4,0,0,0-.744-1.763,2.55,2.55,0,0,0-1.859-.733m-10.667,6.4V61.721h4.363V36.36h-6.039L300.544,55.2,293.095,36.36H286.81V61.721h4.1V42.2h.141l7.866,19.518h3.094l7.743-19.516h.141Z" transform="translate(-231.803 -27.885)" fill="#4d4d4d"/>
  <path id="Path_8" data-name="Path 8" d="M20.112,20.112H0V0H20.112Z" fill="#4d4d4d"/>
  <path id="Path_9" data-name="Path 9" d="M135.9,20.112H115.788V0H135.9V20.112Z" transform="translate(-93.581)" fill="#4d4d4d"/>
  <path id="Path_10" data-name="Path 10" d="M20.112,135.94H0V115.828H20.112Z" transform="translate(0 -93.614)" fill="#4d4d4d"/>
  <path id="Path_11" data-name="Path 11" d="M135.9,135.94H115.788V115.828H135.9V135.94Z" transform="translate(-93.581 -93.614)" fill="#4d4d4d"/>
</svg>
