<svg xmlns="http://www.w3.org/2000/svg" width="176.434" height="38.917" viewBox="0 0 176.434 38.917">
  <g id="new-youtube-logo" transform="translate(0.02 -0.021)">
    <path id="Path_12" data-name="Path 12" d="M29.356,38.888l-11.542-.211c-3.737-.073-7.484.073-11.147-.689C1.093,36.849.7,31.267.285,26.583A80,80,0,0,1,1.01,6.768,6.776,6.776,0,0,1,7.695.68,369.034,369.034,0,0,1,45.131.322a27,27,0,0,1,3.93.468c6.391,1.12,6.547,7.447,6.96,12.773A72.405,72.405,0,0,1,55.471,29.7c-.634,4.426-1.846,8.136-6.96,8.494-6.409.468-12.672.845-19.1.725C29.411,38.888,29.374,38.888,29.356,38.888Zm-6.786-11.2c4.83-2.773,9.568-5.5,14.37-8.255-4.839-2.773-9.568-5.5-14.37-8.255Z" transform="translate(0 0)" fill="#4d4d4d"/>
    <g id="Group_1" data-name="Group 1" transform="translate(61.88 1.369)">
      <path id="Path_13" data-name="Path 13" d="M761.122,47.187c-.22.9-.413,1.607-.606,2.36H756V14.7h5.271V27.555c.275-.349.413-.5.533-.652a5.722,5.722,0,0,1,3.572-2.36,4.221,4.221,0,0,1,5.17,2.892,15.8,15.8,0,0,1,.808,4.463c.073,3.847.018,7.686-.119,11.533a10.763,10.763,0,0,1-.863,3.48,5.025,5.025,0,0,1-8.7,1.038C761.516,47.757,761.379,47.545,761.122,47.187Zm.257-9.586v6.373a2.024,2.024,0,0,0,3.847.808,3.324,3.324,0,0,0,.358-1.221c.1-3.893.193-7.787.22-11.689a7.51,7.51,0,0,0-.395-2.185,1.642,1.642,0,0,0-2.672-.909,2.847,2.847,0,0,0-1.359,2.452ZM747.054,25.039h5.519V49.566h-4.306c-.156-.927-.312-1.882-.5-3-.294.432-.468.707-.652.983a5.578,5.578,0,0,1-5.858,2.4c-2.048-.331-3.278-1.91-3.554-4.5a21.87,21.87,0,0,1-.119-2.323c-.018-5.739,0-11.5,0-17.235v-.863h5.583v1c0,5.546-.018,11.083.018,16.629a14.094,14.094,0,0,0,.22,2.4,1.274,1.274,0,0,0,1.533,1.047,2.254,2.254,0,0,0,2.158-2.314V26.123A8.273,8.273,0,0,1,747.054,25.039Zm-38-.018H714.6v1.038c0,5.519-.018,11.028.018,16.528a11.483,11.483,0,0,0,.239,2.378,1.281,1.281,0,0,0,1.653,1.084,2.217,2.217,0,0,0,2.029-2.323V25.058h5.519V49.566h-4.288c-.156-.909-.312-1.846-.514-3.03-.275.413-.432.652-.588.9a5.6,5.6,0,0,1-5.9,2.5c-1.965-.294-3.168-1.745-3.535-4.123a16.454,16.454,0,0,1-.174-2.222c-.018-5.959-.018-11.946-.018-17.906Zm-2.846,13.094c-.018.826-.073,1.653-.119,2.479-.211,2.479-.312,6-2.314,7.805a6.983,6.983,0,0,1-4.564,1.607,14.067,14.067,0,0,1-2.24-.083c-3.517-.533-5.151-2.084-5.739-5.95a41.391,41.391,0,0,1,.073-13.461c.826-4.619,3.673-6.253,8.1-5.95,4.132.294,5.978,3,6.464,6.859a46.509,46.509,0,0,1,.34,6.694Zm-5.62-.845c0-1.57.037-3.15-.018-4.72a16.184,16.184,0,0,0-.349-2.727,1.674,1.674,0,0,0-1.708-1.515,1.77,1.77,0,0,0-1.671,1.478,4.115,4.115,0,0,0-.211,1.084c0,2.461-.018,4.931-.037,7.392-.018,2.3-.312,4.7.413,6.9a1.505,1.505,0,0,0,1.533,1.038,1.482,1.482,0,0,0,1.469-1,4.126,4.126,0,0,0,.395-1.57C700.472,41.513,700.591,39.391,700.591,37.27Zm-17.456-4.619c.487-2.378.946-4.7,1.451-7.034.634-2.966,1.341-5.932,1.965-8.907.156-.725.45-.9,1.139-.882,1.478.055,2.984.018,4.564.018-.514,1.892-1.019,3.691-1.515,5.464q-2.355,8.347-4.692,16.73a5.158,5.158,0,0,0-.174,1.359c-.018,3.049,0,6.088,0,9.136v.992h-5.39c-.018-.275-.055-.551-.055-.826,0-1.726-.138-3.462.018-5.17.395-4.1-.909-7.878-1.965-11.7-1.4-5.05-2.81-10.119-4.206-15.169-.073-.239-.1-.5-.174-.79h5.5c1.157,5.574,2.323,11.147,3.535,16.776Zm105.46,6.4H779.3c.1,1.864.138,3.636.331,5.39A1.725,1.725,0,0,0,781.5,46.2a1.861,1.861,0,0,0,2-1.745,10.387,10.387,0,0,0,.174-1.194c.037-.358.055-.744.083-1.258,1.57.083,3.1.174,4.619.239A5.928,5.928,0,0,1,785,49.253a9.657,9.657,0,0,1-6.409.193,4.716,4.716,0,0,1-3.306-3.03,17.8,17.8,0,0,1-1.065-4.481,50.207,50.207,0,0,1,.193-11.258,12.722,12.722,0,0,1,.468-1.827,5.6,5.6,0,0,1,5.05-4.288,16.216,16.216,0,0,1,4.27.156c2.259.395,3.462,2.02,3.985,4.15a15.671,15.671,0,0,1,.45,3.049c.009,2.342-.037,4.665-.037,7.135Zm-5.28-3.223c0-1.846.018-3.581-.018-5.326a3.523,3.523,0,0,0-.312-1.24,1.651,1.651,0,0,0-1.745-.983,1.4,1.4,0,0,0-1.469,1.1,23.1,23.1,0,0,0-.376,6.464C780.8,35.829,782.076,35.829,783.315,35.829Z" transform="translate(-674.1 -14.7)" fill="#4d4d4d"/>
      <path id="Path_14" data-name="Path 14" d="M1210.563,32.426H1205.1V28h16.308v4.4h-5.427V61.608h-5.408Z" transform="translate(-1156.342 -26.779)" fill="#4d4d4d"/>
    </g>
  </g>
</svg>
