<svg xmlns="http://www.w3.org/2000/svg" width="102.17" height="104.516" viewBox="0 0 102.17 104.516">
  <g id="pizza-hut" transform="translate(-0.001 -0.002)">
    <path id="Path_20" data-name="Path 20" d="M24.636,174.112s-8.069,9.156-11.917,28.608c0,0-.641,4.81,1.193,5.023,1.817.213,2.921-2.53,3.563-4.2.267-.712,12.131-28.144,9.975-29.641,0,0,7.41-.41,8.212,4.632.819,5.023-6.983,8.924-9.263,9.387-2.3.445-2.244,1.372-2.1,1.5s.641.784,3.6.339c2.957-.463,9.761-2.512,12.718-8.8a8.7,8.7,0,0,0-2.458-10.314c-5.326-4.382-13.128-2.173-16.05-.267-2.939,1.906-1.888,3.99-1.6,4.275.3.3.979.677,4.132-.534M50.1,168.678s.089-1.087.873-1.194c.8-.107,1.354.107,1.514,2.423.178,2.334-.962,5.718-2.814,8.978a33.014,33.014,0,0,0-2.387,5.54s.552,1.532-1.229,1.514-2.886-2.85-2.6-5.094.944-4.667,6.644-12.167M65.211,170a33.084,33.084,0,0,1-7.41.73s-3.972-.517-2.886-2.8a1.669,1.669,0,0,1,1.567-.873,17.209,17.209,0,0,0,4.453-.071,70.488,70.488,0,0,1,8.515-.374,1.773,1.773,0,0,1,1.389,2.476c-.516,1.6-4.542,6.021-4.542,6.021l-6.413,6.074a28.493,28.493,0,0,1,9.37.018c5.095.873,7.82,1.1,9.031.962a22.809,22.809,0,0,0,3.83-.819.943.943,0,0,1,1.229.285c.214.339.125.837-.712,1.354s-3.741,2.4-9.209,2.209-8.657-.16-8.657-.16-6.146-.089-9.512.891c0,0-2.654,1.407-3.794.107s-.267-2.992.321-3.937c.855-1.354,5.238-5.4,13.432-12.095" transform="translate(-9.323 -123.173)" fill="#4d4d4d"/>
    <path id="Path_21" data-name="Path 21" d="M120.654,152.644s-.5-1.265.267-1.977a1.9,1.9,0,0,1,1.051-.463c.356,0,.606.143,1.14.214.481.089,9.334-1.194,9.334-1.194s2.743-.427,4.24,1.123c1.265,1.336-1.033,3.794-1.033,3.794s-7.66,7.856-7.927,7.944c0,0,2.155.232,2.761.3a30.847,30.847,0,0,0,5.273.481c1.193-.178,1.461-.214,1.6-.249.16-.053.908-.267,1.1.356.213.641-.552,1.585-2.69,2.53a17.3,17.3,0,0,1-6.644.98c-1.319-.089-5.041-.249-6.395-.142-1.372.107-2.815.481-2.975.481-.2.018-1.567-.071-.784-2.209a9.418,9.418,0,0,1,2.993-3.723l8.835-7.214s-7.5.944-8.728.427a2.606,2.606,0,0,1-1.425-1.46M79.631,190.661c1.852-.338,4.988-.73,4.988-.73S91,175.377,93.65,175.288s-2.6,13.289-2.6,13.289l7.8-1.656s1.817-6.36,3.545-9.245c1.71-2.886,2.28-2.992,2.565-2.992a1.1,1.1,0,0,1,1.211,1.389c-.214,1.336-1.585,9.281-1.585,9.281l2.155-.8a.6.6,0,0,1,.784.214c.285.481-.5,1.087-.5,1.087l-3.046,1.977s-2.1,9.156-2.921,10.385-1.817,1.942-2.8,1.87c-.962-.071-1.924-1.033-1.835-3.26a30.427,30.427,0,0,1,1.033-5.647s-7.09,2.832-8.176,2.939c0,0-2.369,9.53-3.082,10.759a3.74,3.74,0,0,1-3.384,1.888c-1.621-.2-1.853-2.44-1.87-3.777a41.583,41.583,0,0,1,1.835-8.211s-3.652-.392-4.275-1.265a2.146,2.146,0,0,1-.392-1.621c.16-1.015,1.514-1.229,1.514-1.229" transform="translate(-57.738 -110.289)" fill="#4d4d4d"/>
    <path id="Path_22" data-name="Path 22" d="M153.985,314.153s10.652-3.278,17.082-4.008c6.431-.748,9.37-.944,9.37-.944a.651.651,0,0,1,.784.57c.125.659-.873.8-.873.8A348.865,348.865,0,0,0,145.167,323.1c-1.55.623-21.536,9.405-21.536,9.405a10.284,10.284,0,0,1-4.453.534c-2.013-.356-2.4-1.282-2.565-2.191,0,0-.588-2.049,2.316-3.028,2.672-.908,9.833-4.115,9.833-4.115l18.829-7.464Z" transform="translate(-86.182 -228.601)" fill="#4d4d4d"/>
    <path id="Path_23" data-name="Path 23" d="M322.475,154.733a4.9,4.9,0,0,0-.214,1.069s-2.512,1.443-3.652,1.888a7.081,7.081,0,0,1-2.619.374c1.443-4.9,7.588-5.86,7.588-5.86s-.944,2.12-1.1,2.529m9.174,3.082c-.089-.356-2.031-.588-2.743-.659a1.786,1.786,0,0,1-1.639-1.229c-.285-.784.748-3.26,1.211-5.006.481-1.746-.481-2.369-1.033-2.423a2.232,2.232,0,0,0-1.211.445c-7.143-1.5-15.23,6.056-15.693,9.405-.338,2.44.356,4.168,2.387,4.6a9.339,9.339,0,0,0,5.433-.926,28.323,28.323,0,0,0,4.7-3.01c.3.766,1.995,1.532,3.545,1.585a11.466,11.466,0,0,0,4.7-1.5,1.142,1.142,0,0,0,.338-1.283" transform="translate(-229.54 -109.79)" fill="#4d4d4d"/>
    <path id="Path_24" data-name="Path 24" d="M160.218,121.5s.819-.41,1.158-.053.143.891-.125,1.371-4.026,6.288-5.29,7.41a2.423,2.423,0,0,1-2.832.285c-.908-.517-.784-2.262-.463-2.992a9.648,9.648,0,0,1,3.6-4.15,18.034,18.034,0,0,1,3.955-1.87" transform="translate(-112.698 -89.686)" fill="#4d4d4d"/>
    <path id="Path_25" data-name="Path 25" d="M100.409,26.272l-1.585-1.1C94.335,21.659,76.13,14.445,76.13,14.445s-1.282-2.886-2.013-4.293a31.311,31.311,0,0,0-5.273-7.179.686.686,0,0,0-.3-.089L68.4,2.92,63.055,4.345,50.8,7.889s-8.408,2.637-8.8,2.779a2.477,2.477,0,0,0-.677.427s-2.868,4.934-3.1,5.5c-.249.57-3.545,6.947-3.545,6.947l-8.194,3.865c-.748.41-.748.374-6.413,3.794L13.214,36s-6.5,4.916-7.036,5.415a2,2,0,0,0-.57,2.44c.552.908,1.959.748,1.959.748l6.573-1.728,13.2-3.349,15.711-3.278,2.155-.374a10.557,10.557,0,0,1,1.6-1.229,19.585,19.585,0,0,1,4.222-2,2.266,2.266,0,0,1,2.618.285,1.925,1.925,0,0,1,.552,1.443l.891-.16h.035l16.8-2.173s10.724-1.087,14.322-1.194c8.693-.267,12.879-1.567,12.879-1.567.356-.16,1.532-.57,1.763-1.532a1.432,1.432,0,0,0-.481-1.479" transform="translate(-3.976 -2.131)" fill="#4d4d4d"/>
    <path id="Path_26" data-name="Path 26" d="M73.449,70.238s-4.578.018-4.685-1.692,1.835-2.084,2.708-1.639a3.155,3.155,0,0,0,.98.036c.481-.071,2.868-.5,2.868-.5s3.6-5.825,4.257-6.43a1.3,1.3,0,0,1,1.853-.2c1.14.784.32,2.583.32,2.583l-1.5,3.028L91.03,63.416s.659-.16.784.374c.107.445-1.033.944-1.033.944s-11.1,4.454-12.273,4.65l-3.064,8.283-2.512,7.446a1.051,1.051,0,0,1-.926.57c-.624-.018-.927-1.1-.944-1.371a33.7,33.7,0,0,1,.2-6.822,54.085,54.085,0,0,1,2.191-7.2m-22.022,3.1a2.669,2.669,0,0,0-1.1-1.193c-.748-.392-.873-.766-.517-1.158a4.376,4.376,0,0,1,3.313-.481c1.514.285,2.547,2.1,2.672,3.349a12.5,12.5,0,0,1-.873,5.451s6.662-4.15,8.016-6.413c0,0,1.657-3.384,2.423-3.99,0,0,1.55-1.175,2.209.588a22.063,22.063,0,0,1-.445,4.186,49.565,49.565,0,0,0-.446,8.373,1.074,1.074,0,0,1-.285,1.656,1.985,1.985,0,0,1-1.728-.588,6.324,6.324,0,0,1-2.69-5.433s-3.188,4.6-5.878,5.807-3.848,1.336-5.54.071c-1.692-1.247-.517-5.112-.517-5.112s1.336-4.026,1.354-4.115a1.775,1.775,0,0,0,.035-1M30.776,19.8c-.018.071-.16.089-.285.036-.143-.053-.3-.214-.16-.588.125-.392,3.26-6.84,5.308-10.3a1.485,1.485,0,0,1,1-.837c.784-.249,20.806-5.985,20.806-5.985L62.626.8a1.228,1.228,0,0,1,1.336.855,1.2,1.2,0,0,1-.855,1.514c-.2.089-12.238,3.865-12.238,3.865L37.332,10.221s-6.52,9.53-6.555,9.583M67.249.265a.192.192,0,0,1,.089-.249c.161-.071.285.16.285.16s1.372,2.512,1.55,3.064,3.117,8.675,3.117,8.675,9.975,2.9,10.492,3.046a159.054,159.054,0,0,1,16.851,6.787s.517.249.57.285a1.228,1.228,0,0,1,.356,1.318,1.283,1.283,0,0,1-1.211.8,14.05,14.05,0,0,1-1.478-.5S78.044,16.528,72.9,15.3c0,0-2.583-.855-2.957-1.674a47.4,47.4,0,0,1-1.015-5.148Zm23.634,24.78C90.509,23.1,87.231,23,86.75,23.05c-.481.035-33.186,4.346-35.359,4.7-11.828,1.941-32.135,7.036-32.135,7.036L6.806,38.458c.232-.463,10.189-7.5,10.777-7.945s12.131-7.535,12.131-7.535.926-.356.623-.926a.6.6,0,0,0-.73-.356s-.713.3-2.779,1.175a113.721,113.721,0,0,0-10.439,5.576C11.312,31.262.66,39.9.66,39.9a1.606,1.606,0,0,0-.5,1.995,1.956,1.956,0,0,0,1.977,1.14L17.6,38.868c1.14-.517,21.322-4.632,21.322-4.632l2.191-.392a10.518,10.518,0,0,1,1.728-1.336,19.215,19.215,0,0,1,4.2-2,2.292,2.292,0,0,1,2.619.285,1.945,1.945,0,0,1,.57,1.514l.891-.143.018-.018C62.631,30.175,87.925,28.5,87.925,28.5c.927-.143,3.438-.98,2.957-3.456M94.5,85.666h.232c.267,0,.516-.107.516-.356,0-.178-.142-.356-.516-.356a.812.812,0,0,0-.232.018v.695Zm0,1.14H94.18V84.757a2.486,2.486,0,0,1,.57-.053,1.094,1.094,0,0,1,.641.143.517.517,0,0,1,.2.427.487.487,0,0,1-.41.5v.018c.178.036.3.2.356.516a1.18,1.18,0,0,0,.125.5H95.32a1.206,1.206,0,0,1-.142-.516.394.394,0,0,0-.445-.374H94.5v.891Zm.338-2.636a1.49,1.49,0,1,0,.018,0Zm.018-.285a1.826,1.826,0,1,1-.018,0h.018Z" transform="translate(0)" fill="#4d4d4d"/>
  </g>
</svg>
