<svg xmlns="http://www.w3.org/2000/svg" width="166.489" height="49.933" viewBox="0 0 166.489 49.933">
  <path id="spotify-logo" d="M25.22.277A24.967,24.967,0,1,0,50.187,25.244,24.967,24.967,0,0,0,25.22.277h0ZM36.67,36.286a1.555,1.555,0,0,1-2.141.516C28.667,33.221,21.288,32.41,12.6,34.4a1.557,1.557,0,1,1-.693-3.035c9.511-2.173,17.669-1.237,24.25,2.785A1.556,1.556,0,0,1,36.67,36.286Zm3.056-6.8a1.947,1.947,0,0,1-2.677.642C30.337,26,20.107,24.81,12.169,27.22a1.946,1.946,0,1,1-1.131-3.725c9.067-2.751,20.34-1.419,28.047,3.317a1.946,1.946,0,0,1,.641,2.676Zm.262-7.079c-8.047-4.779-21.323-5.219-29.006-2.887a2.335,2.335,0,1,1-1.356-4.469c8.819-2.677,23.48-2.16,32.745,3.34a2.335,2.335,0,1,1-2.382,4.017Zm28.192.916C63.869,22.3,63.1,21.575,63.1,20.059c0-1.432,1.348-2.4,3.354-2.4A9.8,9.8,0,0,1,72.348,19.9a.285.285,0,0,0,.4-.063l2.1-2.967a.283.283,0,0,0-.054-.384A12.736,12.736,0,0,0,66.52,13.62c-4.654,0-7.907,2.793-7.907,6.79,0,4.286,2.805,5.8,7.653,6.975,4.123.95,4.821,1.746,4.821,3.169,0,1.577-1.407,2.558-3.673,2.558a9.915,9.915,0,0,1-6.866-2.835.292.292,0,0,0-.206-.069.279.279,0,0,0-.194.1l-2.361,2.808a.284.284,0,0,0,.027.394,14.069,14.069,0,0,0,9.5,3.643c5.015,0,8.255-2.74,8.255-6.982.009-3.58-2.135-5.562-7.385-6.84Zm18.741-4.251a6.77,6.77,0,0,0-5.429,2.611V19.709a.282.282,0,0,0-.28-.283H77.351a.282.282,0,0,0-.28.283V41.653a.282.282,0,0,0,.28.283h3.861a.282.282,0,0,0,.28-.283V34.727a6.945,6.945,0,0,0,5.429,2.457c4.04,0,8.13-3.11,8.13-9.054s-4.085-9.056-8.127-9.056Zm3.64,9.056c0,3.026-1.863,5.14-4.535,5.14-2.639,0-4.63-2.209-4.63-5.14s1.992-5.139,4.63-5.139,4.535,2.161,4.535,5.139Zm14.97-9.056a9.074,9.074,0,1,0,9.245,9.056,9.1,9.1,0,0,0-9.245-9.056Zm0,14.225a4.91,4.91,0,0,1-4.854-5.171,4.8,4.8,0,0,1,4.791-5.108,4.923,4.923,0,0,1,4.884,5.173A4.806,4.806,0,0,1,105.531,33.3Zm20.354-13.872h-4.248V15.084a.281.281,0,0,0-.28-.283H117.5a.284.284,0,0,0-.283.283v4.343h-1.854a.282.282,0,0,0-.28.283v3.317a.282.282,0,0,0,.28.283h1.854v8.585c0,3.467,1.726,5.226,5.134,5.226a7.032,7.032,0,0,0,3.613-.9.276.276,0,0,0,.143-.244v-3.16a.281.281,0,0,0-.134-.239.274.274,0,0,0-.274-.012,4.873,4.873,0,0,1-2.266.546c-1.237,0-1.792-.563-1.792-1.822V23.311h4.248a.282.282,0,0,0,.28-.283V19.711a.274.274,0,0,0-.277-.283Zm14.8.017V18.91c0-1.569.6-2.269,1.95-2.269a6.523,6.523,0,0,1,2.176.4.281.281,0,0,0,.37-.269V13.521a.279.279,0,0,0-.2-.271,10.575,10.575,0,0,0-3.208-.461c-3.563,0-5.45,2.008-5.45,5.8v.817h-1.854a.284.284,0,0,0-.283.283v3.334a.284.284,0,0,0,.283.283h1.854V36.549a.283.283,0,0,0,.283.283h3.858a.281.281,0,0,0,.283-.283V23.311h3.6l5.522,13.238c-.626,1.389-1.243,1.667-2.084,1.667a4.431,4.431,0,0,1-2.129-.605.307.307,0,0,0-.224-.021.281.281,0,0,0-.167.152l-1.309,2.871a.282.282,0,0,0,.122.367,8.124,8.124,0,0,0,4.12,1.055c2.85,0,4.427-1.33,5.814-4.9l6.7-17.3a.282.282,0,0,0-.259-.385h-4.019a.283.283,0,0,0-.268.19L152.05,31.391l-4.508-11.765a.281.281,0,0,0-.262-.182h-6.595Zm-8.58-.017h-3.861a.284.284,0,0,0-.283.283V36.549a.283.283,0,0,0,.283.283H132.1a.283.283,0,0,0,.283-.283V19.711a.282.282,0,0,0-.283-.283ZM130.2,11.759a2.768,2.768,0,1,0,2.767,2.767A2.768,2.768,0,0,0,130.2,11.759Zm33.815,13.082a2.724,2.724,0,1,1,2.731-2.732,2.706,2.706,0,0,1-2.731,2.732Zm.015-5.177a2.453,2.453,0,1,0,2.43,2.445,2.429,2.429,0,0,0-2.43-2.445Zm.6,2.724.769,1.076h-.65l-.692-.987h-.593v.987h-.543V20.612h1.27c.665,0,1.1.339,1.1.91a.846.846,0,0,1-.659.866Zm-.459-1.286h-.707V22h.707c.352,0,.563-.173.563-.451S164.521,21.1,164.169,21.1Z" transform="translate(-0.253 -0.277)" fill="#4d4d4d"/>
</svg>
