<svg xmlns="http://www.w3.org/2000/svg" width="193.581" height="46.012" viewBox="0 0 193.581 46.012">
  <g id="walmart" transform="translate(384.5 -305.5)">
    <path id="Path_17" data-name="Path 17" d="M332.306,320.99a1.972,1.972,0,0,0,2.085-1.285l1.064-12.038c0-1.19-1.394-2.167-3.146-2.167s-3.143.977-3.143,2.167L330.23,319.7a1.964,1.964,0,0,0,2.08,1.285h0m-6.506,3.76a1.963,1.963,0,0,0-.07-2.446l-9.895-6.941c-1.029-.6-2.571.121-3.447,1.64s-.723,3.21.3,3.806l10.956,5.1a1.982,1.982,0,0,0,2.155-1.167l0,.007m13.018-.006a1.982,1.982,0,0,0,2.155,1.167l10.956-5.1c1.032-.6,1.179-2.29.309-3.806s-2.425-2.235-3.451-1.64l-9.9,6.941a1.972,1.972,0,0,0-.07,2.446l0-.007m-6.512,11.284a1.968,1.968,0,0,1,2.085,1.281l1.064,12.036c0,1.194-1.394,2.168-3.146,2.168s-3.143-.975-3.143-2.168l1.064-12.036a1.961,1.961,0,0,1,2.08-1.281h0m6.512-3.761a1.972,1.972,0,0,1,2.155-1.162l10.956,5.1c1.032.6,1.179,2.292.309,3.809s-2.425,2.232-3.451,1.637l-9.9-6.934a1.978,1.978,0,0,1-.07-2.45h0m-13.017,0a1.969,1.969,0,0,1-.07,2.45l-9.895,6.934c-1.029.595-2.571-.126-3.447-1.637s-.723-3.213.3-3.809l10.956-5.1a1.971,1.971,0,0,1,2.155,1.162h0" transform="translate(-546.765)" fill="#4d4d4d"/>
    <path id="Path_18" data-name="Path 18" d="M-276.871,369.99a3.826,3.826,0,0,1-.134,1.085,3.8,3.8,0,0,1-3.659,2.565,2.476,2.476,0,0,1-2.693-2.654c0-2.756,3.034-3.517,6.487-3.5v2.5Zm5.417-4.8c0-4.545-1.942-8.544-8.5-8.544a15.532,15.532,0,0,0-7.5,1.789l1.069,3.654a10.983,10.983,0,0,1,5.47-1.539c3.328-.009,3.873,1.885,3.873,3.1v.287c-7.255-.011-11.842,2.5-11.842,7.619a6.042,6.042,0,0,0,6.4,6.056,7.266,7.266,0,0,0,5.835-2.593h.124s.828,3.467,5.4,2.14a29.47,29.47,0,0,1-.317-4.832v-7.135M-384.5,350.454s4.741,19.427,5.5,22.58c.883,3.68,2.475,5.035,7.062,4.12l2.96-12.044c.751-2.993,1.253-5.127,1.737-8.169h.084a79.932,79.932,0,0,0,1.439,8.179s1.2,5.468,1.822,8.339,2.34,4.68,6.834,3.695l7.054-26.7H-355.7L-358.113,362c-.648,3.359-1.235,5.987-1.688,9.059h-.081c-.412-3.045-.936-5.566-1.594-8.84l-2.506-11.764h-5.933l-2.682,11.468c-.759,3.486-1.471,6.3-1.922,9.269h-.082c-.463-2.8-1.079-6.334-1.747-9.707,0,0-1.593-8.2-2.153-11.03h-6m45.26,19.537a3.773,3.773,0,0,1-.136,1.085,3.8,3.8,0,0,1-3.659,2.565,2.474,2.474,0,0,1-2.692-2.654c0-2.756,3.033-3.517,6.487-3.5v2.5Zm5.416-4.8c0-4.545-1.942-8.544-8.5-8.544a15.536,15.536,0,0,0-7.5,1.789l1.067,3.654a10.982,10.982,0,0,1,5.471-1.539c3.331-.009,3.876,1.885,3.876,3.1v.287c-7.258-.011-11.842,2.5-11.842,7.619a6.04,6.04,0,0,0,6.392,6.056,7.271,7.271,0,0,0,5.839-2.593h.122s.83,3.467,5.4,2.14a29.428,29.428,0,0,1-.317-4.832v-7.135m9.039,6.3V350.454h-5.423v26.7h5.423v-5.669m70.944-21.032v19.7c0,2.717.512,4.618,1.6,5.782a6.01,6.01,0,0,0,4.415,1.676,12.919,12.919,0,0,0,3.925-.582l-.07-4.237a8.286,8.286,0,0,1-2.06.245c-1.848,0-2.466-1.184-2.466-3.622v-7.536h4.722v-5.109h-4.722v-6.313h-5.349m-14,6.642v20.059h5.594V366.885a7.608,7.608,0,0,1,.121-1.481,4.221,4.221,0,0,1,4.422-3.527,10.412,10.412,0,0,1,1.614.142v-5.251a5.449,5.449,0,0,0-1.232-.123,5.9,5.9,0,0,0-5.46,4.237h-.151V357.1h-4.909m-53.149,0v20.059h5.45V365.393a4.733,4.733,0,0,1,.256-1.642,3.692,3.692,0,0,1,3.313-2.571c2.2,0,3.228,1.859,3.228,4.543v11.431h5.446V365.248a5.545,5.545,0,0,1,.228-1.626,3.435,3.435,0,0,1,3.27-2.444c2.23,0,3.3,1.827,3.3,4.985v10.99h5.45V365.338c0-6.23-3.164-8.7-6.735-8.7a7.272,7.272,0,0,0-3.958,1.088,8.485,8.485,0,0,0-2.541,2.5h-.081a5.72,5.72,0,0,0-5.528-3.587,6.313,6.313,0,0,0-5.842,3.178h-.081V357.1h-5.173" transform="translate(0 -35.298)" fill="#4d4d4d"/>
    <path id="Path_19" data-name="Path 19" d="M507.95,466.7h.082c.109,0,.179-.045.179-.112s-.066-.118-.167-.118c-.035,0-.07.007-.094.007v.223Zm-.013.541h-.29V466.3a2.284,2.284,0,0,1,.415-.036.638.638,0,0,1,.379.077.244.244,0,0,1,.1.207c0,.1-.089.179-.221.215v.012a.278.278,0,0,1,.2.243.954.954,0,0,0,.066.227h-.328a.626.626,0,0,1-.065-.2c-.018-.1-.064-.143-.16-.143h-.095v.345Zm.12-1.251a.748.748,0,1,0,.006,0h-.006Zm.019-.256a1.092,1.092,0,1,1-.008,0h.006" transform="translate(-700.038 -125.821)" fill="#4d4d4d"/>
  </g>
</svg>
